<svg width="17" height="17" viewBox="0 0 17 17" fill="none" xmlns="http://www.w3.org/2000/svg">
<g clip-path="url(#clip0_63_449)">
<path d="M6.86465 -0.00442061C7.02073 -0.00433496 7.17681 -0.00441494 7.33289 -0.00446663C7.59467 -0.00452658 7.85645 -0.00444864 8.11823 -0.00428931C8.4185 -0.00410864 8.71876 -0.00416731 9.01902 -0.00434995C9.27946 -0.00450187 9.53989 -0.00452129 9.80033 -0.004435C9.95473 -0.00438392 10.1091 -0.0043744 10.2635 -0.00448601C12.2421 -0.00571355 14.2241 0.018049 15.714 1.50287C17.0665 2.93583 17.0058 5.00794 17.0045 6.84261C17.0044 7.00074 17.0045 7.15887 17.0045 7.31701C17.0046 7.58225 17.0045 7.8475 17.0043 8.11275C17.0042 8.41714 17.0042 8.72153 17.0044 9.02593C17.0046 9.28977 17.0046 9.55362 17.0045 9.81747C17.0044 9.97396 17.0044 10.1305 17.0045 10.2869C17.0056 12.0249 17.0056 12.0249 16.9253 12.6235C16.9211 12.6559 16.9168 12.6883 16.9124 12.7217C16.765 13.7792 16.3851 14.7609 15.6387 15.5391C15.6135 15.5664 15.5884 15.5936 15.5624 15.6217C14.4942 16.744 12.8967 16.9616 11.4219 17C10.9918 17.0073 10.5615 17.0063 10.1313 17.0067C10.0309 17.0068 9.93045 17.0069 9.83002 17.0071C9.5138 17.0075 9.19758 17.0078 8.88136 17.008C8.52001 17.0081 8.15867 17.0087 7.79733 17.0097C7.51549 17.0104 7.23365 17.0107 6.95181 17.0108C6.78464 17.0108 6.61747 17.011 6.4503 17.0116C4.66547 17.0177 2.88594 16.9229 1.49415 15.6719C1.46745 15.648 1.44074 15.6241 1.41322 15.5995C0.35944 14.6022 0.0612536 13.1127 1.25589e-05 11.7207C-0.00583572 11.5071 -0.00521389 11.2933 -0.00533755 11.0796C-0.00549165 11.0167 -0.00565854 10.9538 -0.0058371 10.8909C-0.006269 10.7213 -0.00648583 10.5518 -0.00663404 10.3822C-0.00673204 10.2757 -0.00686849 10.1692 -0.00701605 10.0627C-0.00746922 9.72793 -0.00779071 9.39311 -0.00791939 9.0583C-0.00806766 8.67487 -0.00864814 8.29144 -0.00961258 7.90801C-0.0103364 7.60966 -0.0106659 7.3113 -0.01071 7.01294C-0.0107443 6.83569 -0.0109313 6.65844 -0.0115338 6.48119C-0.0174133 4.64502 0.0717426 2.8319 1.39454 1.42777C1.41445 1.40573 1.43435 1.38369 1.45485 1.36098C2.46443 0.285985 3.98322 0.055012 5.38286 0.00677772C5.87662 -0.00762581 6.37072 -0.00477792 6.86465 -0.00442061ZM2.46716 2.4773C1.46475 3.51709 1.51795 5.13473 1.51282 6.47481C1.51217 6.6303 1.51119 6.78579 1.51025 6.94127C1.50873 7.20235 1.50746 7.46342 1.50634 7.72449C1.50505 8.0239 1.50341 8.32331 1.50158 8.62272C1.4998 8.91359 1.49824 9.20445 1.49679 9.49532C1.49618 9.61777 1.4955 9.74022 1.49476 9.86267C1.42586 11.8801 1.42586 11.8801 1.9922 13.7793C2.00752 13.8081 2.02285 13.8369 2.03863 13.8665C2.43252 14.5629 3.03822 14.9914 3.794 15.2089C4.81008 15.4824 5.89812 15.4499 6.94233 15.4484C7.09785 15.4482 7.25337 15.4484 7.40888 15.4485C7.66959 15.4486 7.9303 15.4485 8.19101 15.4482C8.48977 15.4478 8.78852 15.4479 9.08728 15.4483C9.34682 15.4486 9.60635 15.4486 9.86589 15.4484C10.0196 15.4483 10.1733 15.4483 10.327 15.4485C12.6141 15.4767 12.6141 15.4767 14.5518 14.4044C15.5719 13.3381 15.4503 11.6059 15.4484 10.2413C15.4482 10.0811 15.4484 9.92104 15.4485 9.76093C15.4486 9.49217 15.4484 9.22341 15.4481 8.95465C15.4478 8.64692 15.4479 8.33919 15.4482 8.03146C15.4485 7.76428 15.4486 7.49711 15.4484 7.22993C15.4483 7.07166 15.4483 6.9134 15.4485 6.75514C15.4492 6.16994 15.4473 5.5861 15.4093 5.00193C15.4067 4.96123 15.4041 4.92053 15.4013 4.87859C15.3355 3.9718 15.1037 3.05879 14.4102 2.42387C13.1555 1.42674 11.4196 1.52169 9.90421 1.52292C9.76492 1.52301 9.62564 1.52293 9.48636 1.52288C9.25254 1.52282 9.01871 1.5229 8.78489 1.52305C8.51728 1.52323 8.24967 1.52318 7.98206 1.52299C7.74962 1.52284 7.51719 1.52282 7.28475 1.52291C7.14711 1.52296 7.00947 1.52297 6.87182 1.52286C4.50907 1.45104 4.50907 1.45104 2.46716 2.4773Z" fill="#11A3D9"/>
<path d="M11.3131 5.12253C11.3956 5.1951 11.4754 5.26971 11.5547 5.34574C11.5819 5.37087 11.6091 5.39599 11.6372 5.42188C12.4052 6.15296 12.8577 7.24634 12.8896 8.3016C12.9081 9.56967 12.4938 10.6779 11.6163 11.6039C10.9366 12.301 10.0539 12.7079 9.09767 12.8497C9.06856 12.854 9.03946 12.8584 9.00947 12.8629C7.85445 13.0053 6.68627 12.6495 5.7732 11.9428C4.87394 11.226 4.28457 10.1931 4.1421 9.04997C4.06534 8.34083 4.13682 7.64368 4.38282 6.9727C4.39506 6.93884 4.4073 6.90499 4.41992 6.8701C4.84668 5.77376 5.70545 4.92493 6.77345 4.44926C8.29431 3.83078 10.0484 4.06472 11.3131 5.12253ZM6.60743 6.40824C6.58214 6.43037 6.55684 6.4525 6.53078 6.4753C6.03126 6.94192 5.70713 7.65171 5.67774 8.33402C5.67642 8.35893 5.67509 8.38384 5.67372 8.40951C5.65088 9.23983 5.99358 9.95558 6.55348 10.5483C7.0192 10.9942 7.68799 11.2945 8.33399 11.3223C8.3589 11.3236 8.38381 11.325 8.40948 11.3263C9.14438 11.3465 9.84613 11.0788 10.3926 10.5918C10.4178 10.5698 10.443 10.5477 10.469 10.5249C10.9432 10.0826 11.294 9.38266 11.3223 8.73246C11.324 8.69925 11.3257 8.66604 11.3275 8.63182C11.349 7.83565 11.0789 7.1319 10.5343 6.55117C9.98525 5.99357 9.29039 5.67375 8.50001 5.66532C7.79467 5.67285 7.13365 5.94534 6.60743 6.40824Z" fill="#11A3D9"/>
<path d="M13.6548 3.11067C13.9106 3.32106 14.0469 3.56473 14.0874 3.89418C14.1001 4.19325 14.0075 4.45238 13.8148 4.68016C13.589 4.90302 13.3308 5.00098 13.0156 5.01362C12.7191 4.99739 12.5171 4.89507 12.2955 4.70442C12.0676 4.43955 11.9744 4.18406 11.9903 3.82804C12.0336 3.54497 12.1749 3.30687 12.393 3.12312C12.7736 2.85237 13.2692 2.84112 13.6548 3.11067Z" fill="#11A3D9"/>
</g>
<defs>
<clipPath id="clip0_63_449">
<rect width="17" height="17" fill="white"/>
</clipPath>
</defs>
</svg>
