<svg width="17" height="15" viewBox="0 0 17 15" fill="none" xmlns="http://www.w3.org/2000/svg">
<path fill-rule="evenodd" clip-rule="evenodd" d="M15.2391 0.338123C15.4482 0.250151 15.6769 0.21981 15.9017 0.250258C16.1264 0.280706 16.3388 0.37083 16.5169 0.511249C16.695 0.651669 16.8322 0.837251 16.9142 1.04868C16.9962 1.26011 17.02 1.48965 16.9832 1.71342L15.0649 13.3493C14.8788 14.4717 13.6473 15.1154 12.618 14.5563C11.7569 14.0885 10.4781 13.3679 9.32774 12.616C8.75259 12.2396 6.99076 11.0343 7.20728 10.1767C7.39336 9.44333 10.3537 6.68766 12.0453 5.04932C12.7093 4.40565 12.4065 4.03434 11.6224 4.62641C9.67537 6.09644 6.54924 8.33193 5.51565 8.96121C4.60386 9.51607 4.12851 9.6108 3.56013 9.51607C2.52316 9.34352 1.56146 9.07624 0.776547 8.75061C-0.284106 8.31078 -0.232511 6.85259 0.775701 6.428L15.2391 0.338123Z" fill="#11A3D9"/>
</svg>
