<svg width="13" height="11" viewBox="0 0 13 11" fill="none" xmlns="http://www.w3.org/2000/svg">
<path fill-rule="evenodd" clip-rule="evenodd" d="M11.2572 0.096905C11.4048 0.0348056 11.5663 0.0133879 11.7249 0.034881C11.8835 0.056374 12.0335 0.119992 12.1592 0.219114C12.2849 0.318236 12.3818 0.449237 12.4396 0.598483C12.4975 0.747729 12.5144 0.909764 12.4884 1.06772L11.1343 9.28145C11.0029 10.0737 10.1336 10.5281 9.40697 10.1334C8.79916 9.80328 7.89641 9.29458 7.08441 8.7638C6.67841 8.49811 5.43474 7.6473 5.58759 7.04188C5.71894 6.52423 7.80864 4.57902 9.00276 3.42252C9.47145 2.96816 9.2577 2.70605 8.70423 3.12399C7.3298 4.16168 5.12308 5.7397 4.39347 6.18391C3.74984 6.57558 3.41429 6.64245 3.01307 6.57558C2.28108 6.45378 1.60222 6.26511 1.04815 6.03524C0.299444 5.72477 0.335864 4.69545 1.04756 4.39572L11.2572 0.096905Z" fill="#222222"/>
</svg>
