<svg width="17" height="17" viewBox="0 0 17 17" fill="none" xmlns="http://www.w3.org/2000/svg">
<g clip-path="url(#clip0_63_431)">
<path d="M13.6797 8.96484C14.7754 8.96484 15.8711 8.96484 17 8.96484C17 9.25856 16.9921 9.52144 16.946 9.80737C16.9402 9.84449 16.9343 9.8816 16.9282 9.91984C16.6475 11.6059 15.8608 13.1222 14.709 14.377C14.692 14.3955 14.675 14.414 14.6575 14.4331C14.6094 14.4766 14.6094 14.4766 14.5461 14.4747C14.4543 14.4333 14.399 14.3771 14.3271 14.3064C13.8447 13.8514 13.2795 13.4946 12.7168 13.1484C12.7378 12.9635 12.8019 12.8052 12.8704 12.6338C13.1789 11.8399 13.4061 11.0287 13.5386 10.1871C13.5452 10.1454 13.5518 10.1037 13.5586 10.0607C13.6134 9.69545 13.6445 9.33407 13.6797 8.96484Z" fill="#11A3D9"/>
<path d="M0 8.96484C1.0957 8.96484 2.19141 8.96484 3.32031 8.96484C3.36414 9.3593 3.40797 9.75375 3.45312 10.1602C3.61046 11.0914 3.82685 12.1008 4.26243 12.9481C4.29052 13.0394 4.2818 13.0919 4.25 13.1816C4.19159 13.2323 4.19159 13.2323 4.1155 13.2745C4.08768 13.2904 4.05985 13.3063 4.03118 13.3227C4.00135 13.3392 3.97153 13.3556 3.9408 13.3726C3.67369 13.5261 3.42812 13.6859 3.1875 13.8789C3.15985 13.9006 3.1322 13.9223 3.10371 13.9447C2.88469 14.1177 2.67092 14.2972 2.45703 14.4766C1.65639 14.153 0.960538 12.6228 0.640717 11.8774C0.377467 11.2373 0.181107 10.5772 0.0664062 9.89453C0.0621422 9.86969 0.0578782 9.84484 0.0534849 9.81924C0.00463283 9.52654 0 9.26736 0 8.96484Z" fill="#11A3D9"/>
<path d="M14.543 2.52344C15.343 2.84677 16.0421 4.39216 16.3608 5.12366C16.7437 6.03316 17 7.01253 17 8.00195C15.9043 8.00195 14.8086 8.00195 13.6797 8.00195C13.6359 7.61846 13.592 7.23496 13.5469 6.83984C13.3935 5.97533 13.1731 5.15945 12.8575 4.34141C12.844 4.30624 12.8305 4.27107 12.8165 4.23483C12.8045 4.20402 12.7924 4.17321 12.78 4.14147C12.7482 4.0452 12.731 3.95184 12.7168 3.85156C12.735 3.84075 12.7531 3.82993 12.7718 3.81879C13.3392 3.47917 13.8549 3.10389 14.3518 2.66831C14.4434 2.58984 14.4434 2.58984 14.543 2.52344Z" fill="#11A3D9"/>
<path d="M2.39062 2.52344C2.52588 2.57905 2.62527 2.6745 2.73303 2.77039C3.21176 3.18705 3.73838 3.52773 4.2832 3.85156C4.26399 3.98759 4.23344 4.10699 4.18346 4.23483C4.16995 4.27 4.15644 4.30517 4.14251 4.34141C4.12073 4.39786 4.12073 4.39786 4.09851 4.45544C3.65918 5.62324 3.46354 6.74873 3.32031 8.00195C2.22461 8.00195 1.12891 8.00195 0 8.00195C0 7.55257 0 7.55257 0.022049 7.40261C0.0270058 7.36887 0.0319627 7.33512 0.0370698 7.30036C0.045428 7.24806 0.045428 7.24806 0.0539551 7.1947C0.0598482 7.15744 0.0657414 7.12017 0.0718131 7.08178C0.353199 5.38487 1.16015 3.73675 2.39062 2.52344Z" fill="#11A3D9"/>
<path d="M8.99805 8.96484C10.2252 8.96484 11.4524 8.96484 12.7168 8.96484C12.7168 10.2397 12.339 11.5152 11.8535 12.6836C11.6621 12.6621 11.4945 12.5941 11.316 12.5259C10.8592 12.3563 10.4024 12.2352 9.92358 12.1461C9.89591 12.141 9.86824 12.1358 9.83973 12.1305C9.5597 12.0812 9.28187 12.0529 8.99805 12.0195C8.99805 11.0115 8.99805 10.0034 8.99805 8.96484Z" fill="#11A3D9"/>
<path d="M4.2832 8.96484C5.51039 8.96484 6.73758 8.96484 8.00195 8.96484C8.00195 9.97289 8.00195 10.9809 8.00195 12.0195C7.6842 12.0634 7.36645 12.1072 7.03906 12.1523C6.45624 12.2669 5.87253 12.4229 5.32366 12.6545C5.24609 12.6836 5.24609 12.6836 5.14648 12.6836C4.6678 11.5082 4.2832 10.2448 4.2832 8.96484Z" fill="#11A3D9"/>
<path d="M11.8535 4.31641C12.1919 5.19676 12.4734 6.07068 12.6276 7.00378C12.6355 7.05082 12.6355 7.05082 12.6436 7.09881C12.6906 7.40183 12.6995 7.69111 12.7168 8.00195C11.4896 8.00195 10.2624 8.00195 8.99805 8.00195C8.99805 7.00486 8.99805 6.00777 8.99805 4.98047C9.27197 4.9476 9.5459 4.91473 9.82812 4.88086C10.4581 4.75752 11.0676 4.60541 11.6586 4.35298C11.7539 4.31641 11.7539 4.31641 11.8535 4.31641Z" fill="#11A3D9"/>
<path d="M5.14648 4.31641C5.25842 4.33643 5.36026 4.3643 5.46632 4.40512C5.51008 4.42167 5.51008 4.42167 5.55472 4.43855C5.60123 4.45616 5.60123 4.45616 5.64868 4.47412C6.09908 4.64066 6.55169 4.76068 7.02246 4.85388C7.04799 4.85903 7.07353 4.86418 7.09983 4.86948C7.39987 4.92579 7.69557 4.94822 8.00195 4.98047C8.00195 5.97756 8.00195 6.97465 8.00195 8.00195C6.77477 8.00195 5.54758 8.00195 4.2832 8.00195C4.32248 7.29504 4.32248 7.29504 4.37036 6.99341C4.37607 6.95733 4.38177 6.92125 4.38765 6.88407C4.53513 5.99832 4.81156 5.14783 5.14648 4.31641Z" fill="#11A3D9"/>
<path d="M8.00195 12.9824C8.00195 14.3082 8.00195 15.634 8.00195 17C7.93555 17 7.93555 17 7.88581 16.9509C7.86695 16.9286 7.8481 16.9063 7.82867 16.8833C7.80796 16.8589 7.78724 16.8345 7.7659 16.8094C7.74518 16.7846 7.72447 16.7599 7.70312 16.7344C7.68515 16.7132 7.66717 16.692 7.64865 16.6702C7.1748 16.1102 6.73952 15.5245 6.3418 14.9082C6.32533 14.8829 6.30886 14.8576 6.29189 14.8316C6.09583 14.5302 5.90981 14.2248 5.73584 13.91C5.71996 13.8814 5.70408 13.8527 5.68771 13.8232C5.57812 13.6218 5.57812 13.6218 5.57812 13.5469C6.3342 13.2278 7.17582 12.9824 8.00195 12.9824Z" fill="#11A3D9"/>
<path d="M8.99805 12.9824C9.32516 13.0029 9.6222 13.0218 9.93811 13.0883C9.99103 13.0991 9.99103 13.0991 10.045 13.1102C10.5191 13.2113 10.9731 13.3648 11.4219 13.5469C11.3666 13.7516 11.2606 13.9265 11.1562 14.1093C11.1369 14.1432 11.1176 14.1772 11.0977 14.2122C10.9405 14.4861 10.7711 14.7481 10.5918 15.0078C10.5502 15.0714 10.5087 15.135 10.4673 15.1987C10.0724 15.7895 9.63335 16.3534 9.14993 16.8743C9.09536 16.9311 9.09536 16.9311 9.06445 17C9.04254 17 9.02063 17 8.99805 17C8.99805 15.6742 8.99805 14.3484 8.99805 12.9824Z" fill="#11A3D9"/>
<path d="M7.96875 0C7.97971 0 7.99066 0 8.00195 0C8.00195 1.3258 8.00195 2.6516 8.00195 4.01758C7.79299 4.01758 7.60747 4.01005 7.4043 3.97607C7.37689 3.97155 7.34948 3.96702 7.32125 3.96235C6.73798 3.86299 6.10415 3.73012 5.57812 3.45312C6.05094 2.22564 7.04254 0.926211 7.96875 0Z" fill="#11A3D9"/>
<path d="M8.99805 0C9.25899 0.223664 9.25899 0.223664 9.36743 0.361084C9.39268 0.392799 9.41794 0.424515 9.44395 0.457191C9.45755 0.474381 9.47115 0.491571 9.48517 0.509282C9.53252 0.56848 9.58074 0.626881 9.62917 0.685204C10.3319 1.53379 10.9434 2.46011 11.4219 3.45312C10.6304 3.7834 9.85622 3.9671 8.99805 4.01758C8.99805 2.69178 8.99805 1.36598 8.99805 0Z" fill="#11A3D9"/>
<path d="M6.50781 0.199219C6.45566 0.364582 6.35692 0.480922 6.25049 0.614258C5.99645 0.939698 5.76947 1.28076 5.54492 1.62695C5.5275 1.65358 5.51007 1.68021 5.49212 1.70764C5.22112 2.12244 4.98015 2.55064 4.74805 2.98828C4.59847 2.96283 4.49318 2.9079 4.36829 2.82434C4.34804 2.811 4.32779 2.79765 4.30693 2.78391C4.24341 2.74174 4.18026 2.69908 4.11719 2.65625C4.09776 2.64317 4.07832 2.63009 4.0583 2.61661C3.73623 2.39846 3.44415 2.15158 3.1543 1.89258C3.20398 1.74352 3.31351 1.68922 3.4386 1.59998C3.465 1.58111 3.49139 1.56224 3.51859 1.5428C4.28565 1.00514 5.53464 0.199219 6.50781 0.199219Z" fill="#11A3D9"/>
<path d="M10.4922 0.199219C11.7327 0.47815 12.8433 1.05093 13.8457 1.82617C13.6286 2.29117 12.8038 2.75786 12.3516 2.98828C12.3187 2.98828 12.2858 2.98828 12.252 2.98828C12.2408 2.9671 12.2296 2.94591 12.2181 2.92409C11.9953 2.50277 11.7675 2.09026 11.5008 1.69505C11.4533 1.62431 11.4067 1.55307 11.3601 1.48169C11.1014 1.08641 10.8298 0.69815 10.5359 0.328059C10.4922 0.265625 10.4922 0.265625 10.4922 0.199219Z" fill="#11A3D9"/>
<path d="M4.74805 14.0117C4.75987 14.0344 4.77169 14.0571 4.78387 14.0804C5.04749 14.5838 5.32456 15.0689 5.64453 15.5391C5.67593 15.5858 5.70732 15.6326 5.73869 15.6794C5.92558 15.9562 6.12232 16.225 6.32416 16.4911C6.3388 16.5104 6.35343 16.5297 6.36852 16.5496C6.4017 16.593 6.43549 16.636 6.46942 16.6789C6.50781 16.7344 6.50781 16.7344 6.50781 16.8008C5.26735 16.5219 4.15673 15.9491 3.1543 15.1738C3.21406 15.0432 3.29609 14.9654 3.4054 14.875C3.42423 14.8593 3.44306 14.8436 3.46246 14.8274C4.45614 14.0117 4.45614 14.0117 4.74805 14.0117Z" fill="#11A3D9"/>
<path d="M12.252 14.0117C12.7008 14.0885 13.1735 14.5658 13.5137 14.8418C13.5759 14.8916 13.6381 14.9414 13.7004 14.9912C13.7489 15.0299 13.7973 15.0687 13.8457 15.1074C13.8092 15.2171 13.7904 15.2328 13.7007 15.2983C13.6771 15.3156 13.6535 15.3329 13.6292 15.3507C13.6034 15.369 13.5776 15.3874 13.551 15.4062C13.5243 15.4253 13.4977 15.4444 13.4702 15.4641C12.5864 16.0855 11.5526 16.5798 10.4922 16.8008C10.5371 16.6704 10.5945 16.5845 10.6852 16.4812C10.9078 16.2154 11.0973 15.9271 11.2891 15.6387C11.3054 15.6141 11.3218 15.5895 11.3387 15.5641C11.6713 15.0621 11.9737 14.5456 12.252 14.0117Z" fill="#11A3D9"/>
</g>
<defs>
<clipPath id="clip0_63_431">
<rect width="17" height="17" fill="white"/>
</clipPath>
</defs>
</svg>
