<svg width="65" height="66" viewBox="0 0 65 66" fill="none" xmlns="http://www.w3.org/2000/svg">
<circle cx="32.5" cy="33" r="32" stroke="#12B1EB" stroke-opacity="0.3"/>
<g clip-path="url(#clip0_79_1057)">
<path d="M32.6504 22.9746C32.6515 23.0275 32.6526 23.0803 32.6538 23.1347C32.6582 23.3322 32.6631 23.5297 32.6684 23.7272C32.6705 23.8124 32.6725 23.8976 32.6743 23.9828C32.6769 24.1059 32.6802 24.2289 32.6836 24.3519C32.6854 24.4258 32.6871 24.4996 32.689 24.5757C32.7226 24.9697 32.7989 25.2079 33.1035 25.4668C33.3125 25.5713 33.5546 25.5433 33.7832 25.5235C34.0235 25.4263 34.1257 25.3026 34.2363 25.0703C34.2962 24.8348 34.3041 24.6054 34.3109 24.363C34.3126 24.3032 34.3126 24.3032 34.3144 24.2423C34.3181 24.1159 34.3215 23.9895 34.3248 23.8632C34.3273 23.7771 34.3297 23.6911 34.3322 23.6051C34.3383 23.3949 34.344 23.1848 34.3496 22.9746C34.814 23.0019 35.2619 23.0506 35.7161 23.1516C35.7997 23.1702 35.7997 23.1702 35.885 23.1891C36.7662 23.3934 37.5771 23.7355 38.3711 24.1641C38.4579 24.2101 38.4579 24.2101 38.5465 24.257C39.3412 24.6977 40.0507 25.2808 40.6934 25.9199C40.7219 25.9483 40.7505 25.9767 40.78 26.0059C42.2747 27.5088 43.507 29.8298 43.5271 31.9943C43.5265 32.0458 43.526 32.0973 43.5254 32.1504C43.4726 32.1515 43.4197 32.1526 43.3653 32.1538C43.1678 32.1583 42.9703 32.1632 42.7728 32.1684C42.6876 32.1705 42.6024 32.1725 42.5172 32.1743C42.3941 32.1769 42.2711 32.1802 42.1481 32.1836C42.0742 32.1854 42.0004 32.1872 41.9243 32.189C41.5303 32.2226 41.2921 32.2989 41.0332 32.6035C40.9287 32.8125 40.9567 33.0546 40.9766 33.2832C41.0737 33.5235 41.1974 33.6257 41.4297 33.7363C41.6653 33.7962 41.8946 33.8041 42.137 33.8109C42.1968 33.8127 42.1968 33.8127 42.2577 33.8145C42.3841 33.8182 42.5105 33.8215 42.6368 33.8248C42.7229 33.8273 42.8089 33.8298 42.8949 33.8323C43.1051 33.8383 43.3152 33.844 43.5254 33.8496C43.4981 34.314 43.4494 34.7619 43.3484 35.2161C43.3299 35.2997 43.3299 35.2997 43.3109 35.385C42.724 37.9161 41.065 40.165 38.8809 41.5527C37.5578 42.3705 35.9287 43.0345 34.3496 43.0254C34.3485 42.9726 34.3474 42.9197 34.3462 42.8653C34.3418 42.6678 34.3368 42.4703 34.3316 42.2728C34.3295 42.1876 34.3275 42.1024 34.3257 42.0172C34.3231 41.8942 34.3198 41.7711 34.3164 41.6481C34.3146 41.5743 34.3129 41.5004 34.311 41.4243C34.2774 41.0304 34.2011 40.7921 33.8965 40.5332C33.6875 40.4287 33.4454 40.4567 33.2168 40.4766C32.9765 40.5737 32.8743 40.6975 32.7637 40.9297C32.7038 41.1653 32.6959 41.3946 32.6891 41.637C32.6879 41.6769 32.6867 41.7167 32.6855 41.7577C32.6819 41.8841 32.6785 42.0105 32.6752 42.1369C32.6727 42.2229 32.6702 42.3089 32.6678 42.3949C32.6617 42.6051 32.656 42.8152 32.6504 43.0254C32.2295 42.9985 31.8168 42.9664 31.4043 42.8767C31.3595 42.867 31.3147 42.8573 31.2685 42.8474C30.3763 42.6446 29.5436 42.3312 28.7422 41.8926C28.6431 41.8404 28.6431 41.8404 28.5419 41.7871C27.711 41.3346 26.9762 40.746 26.3066 40.0801C26.2637 40.0375 26.2637 40.0375 26.22 39.9941C24.7253 38.4912 23.4929 36.1703 23.4729 34.0058C23.4735 33.9542 23.474 33.9027 23.4746 33.8496C23.5274 33.8485 23.5803 33.8474 23.6347 33.8462C23.8322 33.8418 24.0297 33.8369 24.2272 33.8316C24.3124 33.8295 24.3976 33.8275 24.4828 33.8257C24.6059 33.8231 24.7289 33.8198 24.8519 33.8164C24.9258 33.8147 24.9996 33.8129 25.0757 33.811C25.4696 33.7774 25.7079 33.7011 25.9668 33.3965C26.0713 33.1875 26.0433 32.9454 26.0234 32.7168C25.9263 32.4765 25.8026 32.3743 25.5703 32.2637C25.3347 32.2038 25.1054 32.1959 24.863 32.1891C24.8032 32.1874 24.8032 32.1874 24.7423 32.1856C24.6159 32.1819 24.4895 32.1785 24.3632 32.1752C24.2771 32.1727 24.1911 32.1703 24.1051 32.1678C23.8949 32.1617 23.6848 32.156 23.4746 32.1504C23.5019 31.686 23.5506 31.2381 23.6516 30.7839C23.6701 30.7003 23.6701 30.7003 23.689 30.615C23.8934 29.7338 24.2355 28.9229 24.6641 28.1289C24.6947 28.071 24.7254 28.0131 24.757 27.9535C25.1977 27.1588 25.7808 26.4493 26.4199 25.8067C26.4483 25.7781 26.4766 25.7495 26.5059 25.72C28.0575 24.1768 30.4264 22.9635 32.6504 22.9746ZM37.385 27.7887C37.2367 27.9307 37.0935 28.0763 36.9515 28.2245C36.8785 28.2987 36.8785 28.2987 36.8041 28.3744C36.5986 28.5846 36.3969 28.7962 36.2066 29.0203C35.8498 29.4342 35.4477 29.8091 35.0595 30.1932C34.5282 30.7164 34.5282 30.7164 34.0284 31.2693C33.9255 31.3898 33.8148 31.5013 33.7018 31.6123C33.6633 31.6503 33.6248 31.6883 33.5852 31.7274C33.5571 31.7548 33.529 31.7823 33.5 31.8106C33.2916 31.7221 33.1508 31.5933 32.9867 31.4389C32.7788 31.2455 32.5677 31.0607 32.3459 30.8831C32.1079 30.6911 31.8822 30.4901 31.6592 30.2813C31.3402 29.9828 31.0116 29.7018 30.668 29.4317C30.6287 29.4 30.5894 29.3684 30.5489 29.3359C30.3824 29.221 30.2454 29.2119 30.0449 29.2051C29.7117 29.3027 29.5621 29.4427 29.3652 29.7149C29.2756 29.8942 29.2721 30.0872 29.3086 30.2813C29.4663 30.5626 29.6705 30.765 29.9069 30.9787C29.942 31.0109 29.9772 31.0431 30.0134 31.0763C30.266 31.3061 30.5272 31.5231 30.7939 31.7364C30.9752 31.8872 31.1473 32.0459 31.3193 32.207C31.5898 32.4603 31.8681 32.6983 32.1574 32.9301C32.3769 33.1115 32.5841 33.3055 32.7915 33.5005C33.0712 33.7418 33.2711 33.832 33.6385 33.82C33.8936 33.7724 34.0519 33.6279 34.2363 33.4531C34.2701 33.4218 34.3038 33.3905 34.3385 33.3582C34.4994 33.2028 34.648 33.0397 34.7919 32.8686C35.1584 32.4481 35.5657 32.0641 35.962 31.672C36.4766 31.1644 36.4766 31.1644 36.9604 30.6279C37.1117 30.4596 37.2725 30.3017 37.4336 30.143C37.4667 30.1103 37.4999 30.0777 37.534 30.044C37.672 29.908 37.8102 29.7722 37.949 29.6369C38.0513 29.537 38.1532 29.4365 38.2549 29.3359C38.3015 29.2909 38.3015 29.2909 38.349 29.245C38.6026 28.9931 38.8256 28.7255 38.8525 28.3555C38.838 28.0981 38.7483 27.9401 38.5976 27.7324C38.1958 27.4152 37.7666 27.473 37.385 27.7887Z" fill="#12B1EB"/>
<path d="M33.4787 18.4823C33.5363 18.4824 33.594 18.4825 33.6534 18.4827C34.4808 18.4855 35.2926 18.4997 36.1054 18.6699C36.1606 18.6812 36.2158 18.6924 36.2727 18.704C38.4849 19.1668 40.5488 20.0518 42.3358 21.4453C42.3859 21.4834 42.436 21.5215 42.4876 21.5608C43.3705 22.2462 44.1989 23.0561 44.8847 23.9375C44.9286 23.9918 44.9726 24.0461 45.0179 24.1021C46.9738 26.5609 48.0248 29.6836 48.0178 32.8146C48.0176 32.9811 48.0189 33.1476 48.0204 33.3141C48.0229 34.0715 47.9546 34.802 47.83 35.5488C47.814 35.6454 47.814 35.6454 47.7977 35.744C47.3998 37.9593 46.4379 40.0653 45.0546 41.8359C45.0116 41.891 44.9686 41.946 44.9243 42.0028C44.2257 42.8739 43.444 43.6981 42.5624 44.3848C42.5094 44.4281 42.4564 44.4714 42.4018 44.516C40.592 45.9652 38.3735 46.9003 36.1054 47.3301C36.0595 47.3393 36.0137 47.3486 35.9665 47.3582C34.2649 47.6907 32.3027 47.6287 30.6112 47.2734C30.525 47.2557 30.525 47.2557 30.437 47.2376C28.3331 46.7905 26.3584 45.8784 24.664 44.5547C24.6089 44.5117 24.5539 44.4687 24.4971 44.4244C23.626 43.7257 22.8018 42.944 22.1151 42.0625C22.0502 41.983 22.0502 41.983 21.9839 41.9019C20.5347 40.092 19.5996 37.8736 19.1698 35.6055C19.1606 35.5596 19.1513 35.5138 19.1417 35.4665C18.8319 33.8814 18.8388 31.9751 19.1698 30.3945C19.1811 30.3393 19.1923 30.2841 19.2039 30.2272C19.7753 27.4959 21.0234 24.9698 22.9771 22.9649C23.0776 22.8618 23.1771 22.7578 23.2767 22.6538C23.679 22.2381 24.0989 21.866 24.5629 21.5207C24.6656 21.4441 24.7672 21.3662 24.8689 21.2882C25.345 20.9265 25.8401 20.6126 26.3616 20.3204C26.4672 20.2611 26.5718 20.2005 26.6765 20.1397C28.7496 18.9748 31.1202 18.4733 33.4787 18.4823ZM25.6386 24.3329C25.5297 24.4325 25.4186 24.527 25.3047 24.6207C25.0859 24.8075 24.9058 25.0208 24.7206 25.2402C24.6732 25.294 24.6258 25.3477 24.577 25.4031C22.5784 27.6831 21.614 30.754 21.7833 33.7647C21.9708 36.3976 23.0363 38.8445 24.7773 40.8164C24.8181 40.8642 24.859 40.912 24.9012 40.9613C25.1093 41.2023 25.3249 41.4197 25.5685 41.6249C25.6444 41.6894 25.7188 41.7558 25.7915 41.824C27.5206 43.4401 29.8727 44.3778 32.1972 44.668C32.2475 44.6743 32.2978 44.6807 32.3496 44.6872C35.2899 44.9925 38.3634 44.0945 40.6825 42.2648C40.8984 42.0893 41.1077 41.9068 41.3163 41.7227C41.3641 41.6818 41.412 41.6409 41.4612 41.5987C41.7023 41.3907 41.9196 41.175 42.1248 40.9315C42.1893 40.8555 42.2557 40.7811 42.3239 40.7084C43.94 38.9793 44.8777 36.6272 45.1679 34.3027C45.1742 34.2524 45.1806 34.2021 45.1871 34.1503C45.4967 31.1689 44.5736 28.0468 42.6854 25.7192C42.5346 25.5376 42.3791 25.3604 42.2226 25.1836C42.1775 25.1316 42.1325 25.0796 42.0861 25.0261C41.828 24.7321 41.5593 24.4713 41.2597 24.2207C41.1794 24.1499 41.1794 24.1499 41.0975 24.0778C37.2654 20.717 31.4522 20.376 25.6386 24.3329Z" fill="#12B1EB"/>
</g>
<defs>
<clipPath id="clip0_79_1057">
<rect width="29" height="29" fill="white" transform="translate(19 18.5)"/>
</clipPath>
</defs>
</svg>
