<svg width="10" height="11" viewBox="0 0 10 11" fill="none" xmlns="http://www.w3.org/2000/svg">
<path d="M0.505025 9.00503C0.231658 9.27839 0.231658 9.72161 0.505025 9.99498C0.778392 10.2683 1.22161 10.2683 1.49497 9.99498L0.505025 9.00503ZM9.7 1.5C9.7 1.1134 9.3866 0.8 9 0.8H2.7C2.3134 0.8 2 1.1134 2 1.5C2 1.8866 2.3134 2.2 2.7 2.2H8.3V7.8C8.3 8.1866 8.6134 8.5 9 8.5C9.3866 8.5 9.7 8.1866 9.7 7.8V1.5ZM1 9.5L1.49497 9.99498L9.49498 1.99497L9 1.5L8.50503 1.00503L0.505025 9.00503L1 9.5Z" fill="#12B0EA"/>
</svg>
