<svg width="29" height="30" viewBox="0 0 29 30" fill="none" xmlns="http://www.w3.org/2000/svg">
<g clip-path="url(#clip0_63_22)">
<path d="M13.6504 4.97462C13.6515 5.02745 13.6526 5.08028 13.6538 5.13471C13.6582 5.33223 13.6631 5.52973 13.6684 5.72723C13.6705 5.81242 13.6725 5.89763 13.6743 5.98283C13.6769 6.10588 13.6802 6.22889 13.6836 6.35192C13.6854 6.42578 13.6871 6.49964 13.689 6.57573C13.7226 6.96966 13.7989 7.20789 14.1035 7.46681C14.3125 7.5713 14.5546 7.54328 14.7832 7.52345C15.0235 7.42631 15.1257 7.30257 15.2363 7.07033C15.2962 6.83476 15.3041 6.60541 15.3109 6.36298C15.3126 6.30324 15.3126 6.30324 15.3144 6.24229C15.3181 6.11592 15.3215 5.98955 15.3248 5.86317C15.3273 5.77714 15.3297 5.69111 15.3322 5.60508C15.3383 5.39494 15.344 5.18478 15.3496 4.97462C15.814 5.0019 16.2619 5.05062 16.7161 5.15163C16.7997 5.17016 16.7997 5.17016 16.885 5.18906C17.7662 5.3934 18.5771 5.7355 19.3711 6.16408C19.4579 6.21008 19.4579 6.21008 19.5465 6.257C20.3412 6.69767 21.0507 7.28079 21.6934 7.91994C21.7219 7.9483 21.7505 7.97667 21.78 8.00589C23.2747 9.50878 24.507 11.8298 24.5271 13.9943C24.5265 14.0458 24.526 14.0973 24.5254 14.1504C24.4726 14.1515 24.4197 14.1526 24.3653 14.1538C24.1678 14.1583 23.9703 14.1632 23.7728 14.1684C23.6876 14.1705 23.6024 14.1725 23.5172 14.1743C23.3941 14.1769 23.2711 14.1802 23.1481 14.1836C23.0742 14.1854 23.0004 14.1872 22.9243 14.189C22.5303 14.2226 22.2921 14.2989 22.0332 14.6035C21.9287 14.8125 21.9567 15.0546 21.9766 15.2832C22.0737 15.5235 22.1974 15.6257 22.4297 15.7363C22.6653 15.7962 22.8946 15.8041 23.137 15.8109C23.1968 15.8127 23.1968 15.8127 23.2577 15.8145C23.3841 15.8182 23.5105 15.8215 23.6368 15.8248C23.7229 15.8273 23.8089 15.8298 23.8949 15.8323C24.1051 15.8383 24.3152 15.844 24.5254 15.8496C24.4981 16.314 24.4494 16.7619 24.3484 17.2161C24.3299 17.2997 24.3299 17.2997 24.3109 17.385C23.724 19.9161 22.065 22.165 19.8809 23.5527C18.5578 24.3705 16.9287 25.0345 15.3496 25.0254C15.3485 24.9726 15.3474 24.9197 15.3462 24.8653C15.3418 24.6678 15.3368 24.4703 15.3316 24.2728C15.3295 24.1876 15.3275 24.1024 15.3257 24.0172C15.3231 23.8942 15.3198 23.7711 15.3164 23.6481C15.3146 23.5743 15.3129 23.5004 15.311 23.4243C15.2774 23.0304 15.2011 22.7921 14.8965 22.5332C14.6875 22.4287 14.4454 22.4567 14.2168 22.4766C13.9765 22.5737 13.8743 22.6975 13.7637 22.9297C13.7038 23.1653 13.6959 23.3946 13.6891 23.637C13.6879 23.6769 13.6867 23.7167 13.6855 23.7577C13.6819 23.8841 13.6785 24.0105 13.6752 24.1369C13.6727 24.2229 13.6702 24.3089 13.6678 24.3949C13.6617 24.6051 13.656 24.8152 13.6504 25.0254C13.2295 24.9985 12.8168 24.9664 12.4043 24.8767C12.3595 24.867 12.3147 24.8573 12.2685 24.8474C11.3763 24.6446 10.5436 24.3312 9.74218 23.8926C9.64306 23.8404 9.64306 23.8404 9.54195 23.7871C8.711 23.3346 7.97616 22.746 7.30663 22.0801C7.26374 22.0375 7.26374 22.0375 7.21998 21.9941C5.72525 20.4912 4.49294 18.1703 4.4729 16.0058C4.47346 15.9542 4.47402 15.9027 4.4746 15.8496C4.52743 15.8485 4.58026 15.8474 4.63469 15.8462C4.83221 15.8418 5.02971 15.8369 5.22721 15.8316C5.3124 15.8295 5.3976 15.8275 5.48281 15.8257C5.60585 15.8231 5.72887 15.8198 5.8519 15.8164C5.92576 15.8147 5.99961 15.8129 6.07571 15.811C6.46964 15.7774 6.70786 15.7011 6.96679 15.3965C7.07127 15.1875 7.04326 14.9454 7.02343 14.7168C6.92629 14.4765 6.80255 14.3743 6.5703 14.2637C6.33473 14.2038 6.10539 14.1959 5.86296 14.1891C5.80322 14.1874 5.80322 14.1874 5.74226 14.1856C5.6159 14.1819 5.48953 14.1785 5.36315 14.1752C5.27712 14.1727 5.19109 14.1703 5.10506 14.1678C4.89491 14.1617 4.68476 14.156 4.4746 14.1504C4.50187 13.686 4.5506 13.2381 4.6516 12.7839C4.67013 12.7003 4.67013 12.7003 4.68904 12.615C4.89338 11.7338 5.23548 10.9229 5.66405 10.1289C5.69472 10.071 5.72539 10.0131 5.75698 9.95347C6.19765 9.15876 6.78077 8.44928 7.41991 7.80666C7.44828 7.77806 7.47665 7.74947 7.50587 7.72001C9.05745 6.17685 11.4264 4.96352 13.6504 4.97462ZM18.385 9.78875C18.2367 9.93067 18.0935 10.0763 17.9515 10.2245C17.8785 10.2987 17.8785 10.2987 17.8041 10.3744C17.5986 10.5846 17.3969 10.7962 17.2066 11.0203C16.8498 11.4342 16.4477 11.8091 16.0595 12.1932C15.5282 12.7164 15.5282 12.7164 15.0284 13.2693C14.9255 13.3898 14.8148 13.5013 14.7018 13.6123C14.6633 13.6503 14.6248 13.6883 14.5852 13.7274C14.5571 13.7548 14.529 13.7823 14.5 13.8106C14.2916 13.7221 14.1508 13.5933 13.9867 13.4389C13.7788 13.2455 13.5677 13.0607 13.3459 12.8831C13.1079 12.6911 12.8822 12.4901 12.6592 12.2813C12.3402 11.9828 12.0116 11.7018 11.668 11.4317C11.6287 11.4 11.5894 11.3684 11.5489 11.3359C11.3824 11.221 11.2454 11.2119 11.0449 11.2051C10.7117 11.3027 10.5621 11.4427 10.3652 11.7149C10.2756 11.8942 10.2721 12.0872 10.3086 12.2813C10.4663 12.5626 10.6705 12.765 10.9069 12.9787C10.942 13.0109 10.9772 13.0431 11.0134 13.0763C11.266 13.3061 11.5272 13.5231 11.7939 13.7364C11.9752 13.8872 12.1473 14.0459 12.3193 14.207C12.5898 14.4603 12.8681 14.6983 13.1574 14.9301C13.3769 15.1115 13.5841 15.3055 13.7915 15.5005C14.0712 15.7418 14.2711 15.832 14.6385 15.82C14.8936 15.7724 15.0519 15.6279 15.2363 15.4531C15.2701 15.4218 15.3038 15.3905 15.3385 15.3582C15.4994 15.2028 15.648 15.0397 15.7919 14.8686C16.1584 14.4481 16.5657 14.0641 16.962 13.672C17.4766 13.1644 17.4766 13.1644 17.9604 12.6279C18.1117 12.4596 18.2725 12.3017 18.4336 12.143C18.4667 12.1103 18.4999 12.0777 18.534 12.044C18.672 11.908 18.8102 11.7722 18.949 11.6369C19.0513 11.537 19.1532 11.4365 19.2549 11.3359C19.3015 11.2909 19.3015 11.2909 19.349 11.245C19.6026 10.9931 19.8256 10.7255 19.8525 10.3555C19.838 10.0981 19.7483 9.94014 19.5976 9.73244C19.1958 9.41519 18.7666 9.473 18.385 9.78875Z" fill="#12B1EB"/>
<path d="M14.4788 0.482296C14.5364 0.482418 14.5941 0.48254 14.6535 0.482666C15.4809 0.485479 16.2927 0.49969 17.1055 0.669918C17.1607 0.681171 17.2159 0.692425 17.2728 0.704019C19.485 1.16678 21.5489 2.05183 23.3359 3.44531C23.386 3.48342 23.4361 3.52153 23.4877 3.5608C24.3706 4.24621 25.1989 5.05608 25.8848 5.9375C25.9287 5.99182 25.9727 6.04614 26.018 6.10211C27.9738 8.56093 29.0249 11.6836 29.0179 14.8146C29.0177 14.9811 29.019 15.1476 29.0205 15.3141C29.023 16.0715 28.9547 16.802 28.8301 17.5488C28.8141 17.6454 28.8141 17.6454 28.7978 17.744C28.3999 19.9593 27.4379 22.0653 26.0547 23.8359C26.0117 23.891 25.9687 23.946 25.9244 24.0028C25.2257 24.8739 24.4441 25.6981 23.5625 26.3848C23.5095 26.4281 23.4565 26.4714 23.4019 26.516C21.592 27.9652 19.3736 28.9003 17.1055 29.3301C17.0596 29.3393 17.0138 29.3486 16.9666 29.3582C15.265 29.6907 13.3028 29.6287 11.6113 29.2734C11.5251 29.2557 11.5251 29.2557 11.4371 29.2376C9.33322 28.7905 7.3585 27.8784 5.66406 26.5547C5.60901 26.5117 5.55396 26.4687 5.49724 26.4244C4.62613 25.7257 3.80185 24.944 3.11524 24.0625C3.05029 23.983 3.05029 23.983 2.98403 23.9019C1.53478 22.092 0.599655 19.8736 0.169923 17.6055C0.16065 17.5596 0.151378 17.5138 0.141824 17.4665C-0.167978 15.8814 -0.161129 13.9751 0.169923 12.3945C0.181176 12.3393 0.192429 12.2841 0.204024 12.2272C0.775356 9.49594 2.02354 6.96978 3.97718 4.96493C4.07767 4.86179 4.17724 4.75781 4.27681 4.65379C4.67905 4.23806 5.09898 3.86597 5.56301 3.5207C5.66569 3.4441 5.76733 3.36624 5.86894 3.28822C6.3451 2.92647 6.84022 2.61259 7.36173 2.32038C7.46726 2.26109 7.57194 2.20053 7.67658 2.1397C9.74965 0.974764 12.1203 0.473316 14.4788 0.482296ZM6.63868 6.33287C6.52983 6.43248 6.41872 6.52702 6.30481 6.62072C6.08603 6.80753 5.90586 7.02079 5.7207 7.24023C5.67332 7.29397 5.62593 7.34771 5.57711 7.40307C3.57845 9.68308 2.61407 12.754 2.78336 15.7647C2.97089 18.3976 4.03638 20.8445 5.77735 22.8164C5.81823 22.8642 5.85912 22.912 5.90125 22.9613C6.10934 23.2023 6.325 23.4197 6.56854 23.6249C6.64448 23.6894 6.7189 23.7558 6.79157 23.824C8.52071 25.4401 10.8728 26.3778 13.1973 26.668C13.2476 26.6743 13.2979 26.6807 13.3497 26.6872C16.29 26.9925 19.3635 26.0945 21.6826 24.2648C21.8985 24.0893 22.1078 23.9068 22.3164 23.7227C22.3642 23.6818 22.4121 23.6409 22.4613 23.5987C22.7023 23.3907 22.9197 23.175 23.1249 22.9315C23.1894 22.8555 23.2558 22.7811 23.324 22.7084C24.9401 20.9793 25.8778 18.6272 26.168 16.3027C26.1743 16.2524 26.1807 16.2021 26.1872 16.1503C26.4968 13.1689 25.5737 10.0468 23.6855 7.71924C23.5347 7.53758 23.3792 7.36036 23.2227 7.18359C23.1776 7.1316 23.1326 7.07962 23.0861 7.02606C22.8281 6.73213 22.5594 6.47134 22.2598 6.2207C22.1795 6.14995 22.1795 6.14995 22.0976 6.07777C18.2655 2.71698 12.4523 2.37603 6.63868 6.33287Z" fill="#12B1EB"/>
</g>
<defs>
<clipPath id="clip0_63_22">
<rect width="29" height="29" fill="white" transform="translate(0 0.5)"/>
</clipPath>
</defs>
</svg>
