<svg width="27" height="27" viewBox="0 0 27 27" fill="none" xmlns="http://www.w3.org/2000/svg">
<path d="M14.3772 11.8867H11.9453V14.2689H14.3772V11.8867Z" fill="url(#paint0_linear_818_18218)"/>
<path d="M8.8392 10.3446C9.69531 10.3446 10.3893 9.65488 10.3893 8.80412C10.3893 7.95335 9.69531 7.26367 8.8392 7.26367C7.98308 7.26367 7.28906 7.95335 7.28906 8.80412C7.28906 9.65488 7.98308 10.3446 8.8392 10.3446Z" fill="url(#paint1_linear_818_18218)"/>
<path d="M8.84085 15.8086H8.8392C7.98224 15.8086 7.28906 16.4991 7.28906 17.349C7.28906 18.199 7.98389 18.8895 8.8392 18.8895C9.6945 18.8895 10.3893 18.199 10.3893 17.349C10.3893 16.4991 9.69615 15.8086 8.84085 15.8086Z" fill="url(#paint2_linear_818_18218)"/>
<path d="M13.1588 0C5.89117 0 0 5.85435 0 13.0765C0 20.2987 5.89117 26.153 13.1588 26.153C20.4263 26.153 26.3175 20.2987 26.3175 13.0765C26.3175 5.85435 20.4263 0 13.1588 0ZM17.4402 14.2668C17.4518 14.2668 17.4634 14.2668 17.475 14.2668C19.1889 14.2668 20.5769 15.6478 20.5769 17.3493C20.5769 19.0509 19.1889 20.4319 17.475 20.4319C15.7611 20.4319 14.3731 19.0525 14.3731 17.3493V15.8089H11.9411V17.3493C11.9411 19.0509 10.5531 20.4319 8.83923 20.4319C7.12532 20.4319 5.73731 19.0525 5.73731 17.3493C5.73731 15.6461 7.12697 14.2668 8.83923 14.2668C8.83923 14.2668 8.83923 14.2668 8.84088 14.2668H10.3894V11.8846H8.71184V11.878C7.05749 11.8123 5.73566 10.4625 5.73566 8.80207C5.73566 7.14161 7.12532 5.71954 8.83758 5.71954C10.5498 5.71954 11.9395 7.10051 11.9395 8.80207V10.3425H14.3714V8.80207C14.3714 7.10051 15.7594 5.71954 17.4733 5.71954C19.1872 5.71954 20.5752 7.10051 20.5752 8.80207C20.5752 10.5036 19.1872 11.8846 17.4733 11.8846H15.9232V14.2668H17.4386H17.4402Z" fill="url(#paint3_linear_818_18218)"/>
<path d="M15.9219 8.80576C15.9219 9.65572 16.6167 10.3446 17.472 10.3446C18.3273 10.3446 19.0221 9.65407 19.0221 8.80412C19.0221 7.95416 18.3273 7.26367 17.472 7.26367C16.6167 7.26367 15.9219 7.95416 15.9219 8.80412V8.80576Z" fill="url(#paint4_linear_818_18218)"/>
<path d="M15.9219 17.349C15.9219 18.2006 16.6167 18.8895 17.472 18.8895C18.3273 18.8895 19.0221 18.199 19.0221 17.349C19.0221 16.4991 18.3273 15.8086 17.472 15.8086C16.6167 15.8086 15.9219 16.4974 15.9219 17.3474V17.349Z" fill="url(#paint5_linear_818_18218)"/>
<defs>
<linearGradient id="paint0_linear_818_18218" x1="14.3772" y1="14.268" x2="11.9453" y2="14.268" gradientUnits="userSpaceOnUse">
<stop stop-color="#E628E6"/>
<stop offset="1" stop-color="#961EDC"/>
</linearGradient>
<linearGradient id="paint1_linear_818_18218" x1="10.3893" y1="10.3435" x2="7.28906" y2="10.3435" gradientUnits="userSpaceOnUse">
<stop stop-color="#E628E6"/>
<stop offset="1" stop-color="#961EDC"/>
</linearGradient>
<linearGradient id="paint2_linear_818_18218" x1="10.3893" y1="18.8884" x2="7.28906" y2="18.8884" gradientUnits="userSpaceOnUse">
<stop stop-color="#E628E6"/>
<stop offset="1" stop-color="#961EDC"/>
</linearGradient>
<linearGradient id="paint3_linear_818_18218" x1="26.3175" y1="26.1436" x2="2.13696e-10" y2="26.1436" gradientUnits="userSpaceOnUse">
<stop stop-color="#E628E6"/>
<stop offset="1" stop-color="#961EDC"/>
</linearGradient>
<linearGradient id="paint4_linear_818_18218" x1="19.0221" y1="10.3435" x2="15.9219" y2="10.3435" gradientUnits="userSpaceOnUse">
<stop stop-color="#E628E6"/>
<stop offset="1" stop-color="#961EDC"/>
</linearGradient>
<linearGradient id="paint5_linear_818_18218" x1="19.0221" y1="18.8884" x2="15.9219" y2="18.8884" gradientUnits="userSpaceOnUse">
<stop stop-color="#E628E6"/>
<stop offset="1" stop-color="#961EDC"/>
</linearGradient>
</defs>
</svg>
