<svg width="53" height="49" viewBox="0 0 53 49" fill="none" xmlns="http://www.w3.org/2000/svg">
<path fill-rule="evenodd" clip-rule="evenodd" d="M26.9503 21.7776C26.4726 21.7776 25.9631 21.7776 25.5491 21.7776C25.9949 21.7776 26.4726 21.7776 26.9503 21.7776ZM18.2246 21.5546L17.8425 21.5865C19.5621 21.6502 21.2818 21.7776 23.0015 21.8094C25.772 21.8413 28.3197 21.8413 31.0902 21.7776L33.0647 21.7139C33.3194 21.7139 33.415 21.682 33.6697 21.6502C35.5486 21.5865 36.9498 21.4591 38.7332 21.2999C38.9561 21.268 39.179 21.2999 39.3701 21.268L43.6056 20.7585C43.9559 20.6948 44.4017 20.6311 44.7839 20.5674L45.9621 20.3764C46.8857 20.249 47.7773 19.9942 48.7646 19.8031L49.5288 19.5802C49.6562 19.5484 49.6562 19.5484 49.7836 19.4847C49.9747 19.421 50.1339 19.3891 50.325 19.3255C50.3887 19.2936 50.4842 19.2618 50.5479 19.2299C50.9937 19.0388 51.2167 19.0388 51.7899 18.7841C51.9491 18.7204 52.0765 18.6567 52.2676 18.5612L52.6816 18.3064C53.0956 18.0516 52.8726 17.4784 52.9363 16.523L53 13.8798C52.7453 13.9435 52.6179 14.0709 52.395 14.1665C50.0702 15.1218 48.1276 15.4084 45.6755 15.8224C44.0514 16.0772 42.3636 16.2364 40.7076 16.4275L37.3001 16.7141C36.1855 16.7778 34.9436 16.8733 33.7971 16.9052C31.345 16.9689 28.9566 17.0326 26.4726 17.0326C24.3071 17.0326 21.3136 17.0326 19.2118 16.9052C18.9571 16.9052 18.7023 16.8415 18.352 16.8415C17.3966 16.8096 16.696 16.7141 15.7088 16.6823L14.4031 16.5867C14.2121 16.5867 14.1802 16.5549 14.021 16.523C13.1612 16.4593 12.2695 16.4593 11.4096 16.332L10.6135 16.2364C10.3269 16.2046 10.0084 16.2046 9.72183 16.1727L8.25693 15.9817H8.22509H8.19324C8.16139 15.9817 8.12955 15.9498 8.0977 15.9498L5.67744 15.5677C5.42267 15.5358 5.13606 15.4721 4.8813 15.4403L1.2509 14.4531C0.996131 14.3575 0.805057 14.2938 0.582138 14.1665L0.00891677 13.848C-0.0229288 14.3575 0.0407624 14.8989 0.0407624 15.3766C0.0407624 15.918 0.072608 16.3957 0.072608 16.9689C0.072608 17.2555 0.104454 17.4466 0.104454 17.7332C0.104454 18.1472 0.072608 18.1153 0.327373 18.3064C0.645829 18.5293 1.53751 18.9751 1.9515 19.1025L3.44824 19.6121C4.02146 19.8031 4.62653 19.8668 5.10422 20.0261L7.77925 20.5356C8.25693 20.6311 8.73462 20.663 9.2123 20.7267C9.33968 20.7585 9.37153 20.7903 9.49891 20.7903C9.62629 20.8222 9.75367 20.8222 9.9129 20.8222L12.1103 21.077C13.0656 21.2043 14.0528 21.3317 15.0719 21.3636C15.5496 21.3954 16.0591 21.4591 16.5686 21.491C17.0782 21.5228 17.5877 21.5546 18.1291 21.5546H18.2246Z" fill="#0A91C4"/>
<path fill-rule="evenodd" clip-rule="evenodd" d="M7.20572 13.9119C7.84263 14.0712 8.63877 14.103 9.30753 14.1985C9.4986 14.2304 9.68968 14.1985 9.84891 14.2304L11.4412 14.4533C11.7915 14.4852 12.2055 14.4852 12.5558 14.5488C13.4475 14.7081 17.1416 14.9628 18.0969 15.0265C19.7529 15.0902 21.0267 15.1858 22.7145 15.2176C25.708 15.2495 27.7461 15.3131 30.9625 15.1858C31.7905 15.1539 32.6822 15.0902 33.5102 15.0584C34.37 15.0265 35.2299 14.931 36.0578 14.8992C37.7457 14.8355 39.3698 14.5488 40.9939 14.4215C41.8219 14.3578 42.618 14.2304 43.4779 14.1667C43.86 14.1349 44.274 14.0393 44.688 14.0075C44.9428 14.0075 45.0065 13.9438 45.2612 13.9438C45.4523 13.9438 45.6752 13.9438 45.7389 13.8164C45.2612 13.7527 43.0639 12.9884 42.3951 12.8292C41.9811 12.7336 41.599 12.6381 41.2168 12.5426C39.943 12.2241 37.7457 11.7464 36.44 11.4598C36.026 11.3643 35.6439 11.3006 35.2299 11.2369L32.8096 10.7592C32.0453 10.6 30.9307 10.4726 30.3256 10.3452C29.9435 10.2497 29.4658 10.186 29.0518 10.1542C28.3512 10.0586 27.2048 9.74016 26.4723 9.89939C26.0902 9.99492 25.6443 10.0586 25.2622 10.0905L18.5428 11.3643C17.3963 11.5554 15.5811 12.0012 14.3391 12.256L8.41585 13.5935C8.19293 13.6572 7.36495 13.8164 7.23756 13.9119H7.20572Z" fill="#0A91C4"/>
<path fill-rule="evenodd" clip-rule="evenodd" d="M12.9376 42.8594L12.7465 42.7957C12.6828 42.7957 12.6191 42.7957 12.5236 42.7639L11.3771 42.5728C11.0587 42.5409 10.8676 42.5409 10.6128 42.4454C10.3899 42.3817 10.1033 42.3499 9.8804 42.318C8.82949 42.1588 7.93781 41.904 6.98245 41.6811C6.6003 41.5856 3.60681 40.6939 3.35205 40.5347L3.00174 40.3436C2.87436 40.2799 2.81067 40.2481 2.68329 40.1844C2.2693 40.0251 1.98268 39.8022 1.75977 39.7704L1.82346 43.8785C1.88715 44.0058 3.38389 44.7701 3.60681 44.8975L4.94433 45.4389C5.26278 45.5663 7.17352 46.1395 7.49198 46.2032L8.60657 46.4898C9.56194 46.7446 10.3899 46.8719 11.2816 47.063C11.4408 47.0949 11.4408 47.1267 11.6319 47.1586L13.2879 47.4133L14.6572 47.6044C15.7081 47.8273 18.001 47.891 19.1156 48.0184C19.5933 48.0821 20.1028 48.1139 20.6442 48.1139C21.1537 48.1139 21.6314 48.2095 22.141 48.2095C23.2237 48.2413 24.2109 48.2732 25.2618 48.305C26.3446 48.305 27.4273 48.305 28.5101 48.305C29.0833 48.305 29.4973 48.2413 30.0705 48.2413C30.6119 48.2413 31.1214 48.2095 31.631 48.1776L36.153 47.8592C36.3759 47.8273 36.6626 47.7955 36.8855 47.7955C37.1084 47.7636 37.2995 47.7318 37.4905 47.6999C37.8408 47.6999 40.5796 47.3815 40.898 47.2859L41.5031 47.1586C41.9171 47.0949 42.3311 46.9993 42.7451 46.9356C43.3501 46.8401 43.987 46.6809 44.5921 46.5216C45.2609 46.3943 45.0698 46.3943 45.452 46.2669L46.885 45.8847C47.0442 45.821 46.9805 45.821 47.1716 45.7892L49.0823 45.1204C49.9103 44.802 49.9422 44.7064 50.6109 44.4198C50.9931 44.2606 51.1842 44.0695 51.5026 43.8466L52.3306 43.1779C52.5535 42.9549 52.458 42.2543 52.458 41.8403C52.458 40.885 52.5217 39.9296 52.4898 38.9424C52.2988 38.9424 52.2988 39.0379 52.2032 39.1335C52.1395 39.1971 52.0121 39.2608 51.9485 39.3245C51.4708 39.6748 50.9294 39.9614 50.388 40.2162C50.2606 40.2799 50.1969 40.3117 50.0696 40.3754L48.7002 40.9168C48.2225 41.1079 47.713 41.2353 47.2035 41.3627C46.9805 41.4263 46.6621 41.5219 46.471 41.5856C46.3118 41.6174 46.2162 41.6493 46.057 41.6811C45.9296 41.713 45.8659 41.7448 45.7067 41.7766C45.1653 41.904 43.7323 42.2543 43.3183 42.2862L41.6942 42.5728C41.5349 42.6046 40.9936 42.6046 40.8343 42.732C40.6114 42.7002 39.4968 42.9231 39.1784 42.9231C38.0638 43.0186 37.0129 43.2097 35.8027 43.2734C34.911 43.3371 33.1914 43.5282 32.3952 43.56C27.7139 43.7192 24.402 43.6874 19.6252 43.4645L17.9055 43.3371C17.3641 43.2415 16.7909 43.2415 16.2177 43.1779C15.7081 43.1142 15.1031 43.0186 14.5935 42.9868C14.084 42.9549 13.4153 42.8276 12.9376 42.7957V42.8594Z" fill="#0A91C4"/>
<path fill-rule="evenodd" clip-rule="evenodd" d="M17.6833 6.01402C17.6833 6.01402 17.6514 6.01402 17.6514 6.04586L17.6196 6.07771C17.4922 6.17325 16.4731 6.30063 16.2821 6.33247C15.8044 6.42801 15.3585 6.4917 14.8808 6.58724C13.9573 6.74647 12.9701 6.9057 12.0466 7.09677C11.7918 7.16046 11.6007 7.19231 11.346 7.22415L8.57541 7.76553C8.2888 7.79737 8.06588 7.82922 7.81112 7.89291C7.62004 7.9566 7.39713 7.98845 7.14236 8.02029C6.91944 8.05214 6.60099 8.08398 6.37807 8.14768C5.0087 8.43429 3.57565 8.62536 2.20629 8.94382C1.72861 9.03935 1.25092 9.0712 0.90062 9.29412C-0.18213 9.93103 0.0726344 12.0328 1.34646 12.5105C1.85599 12.7016 3.6075 12.2558 4.21256 12.1602C5.19978 12.0328 6.09146 11.8418 7.04682 11.6507C7.46082 11.587 8.03404 11.4596 8.41619 11.3641L15.3904 10.0266C15.8681 9.96288 16.2821 9.83549 16.7597 9.73996C17.1419 9.67627 18.1928 9.51704 18.5112 9.4215L22.4601 8.75274C22.9378 8.65721 23.3518 8.56167 23.8295 8.46613C24.753 8.3069 25.7402 8.05214 26.6637 7.92476C27.3643 7.82922 27.3643 7.73368 28.1286 7.89291C29.0521 8.05214 30.0075 8.3069 30.931 8.43429C32.3959 8.59351 33.7971 8.94382 35.1983 9.16674C36.5677 9.35781 38.0326 9.67627 39.402 9.93103C40.3255 10.0903 41.249 10.3132 42.2044 10.4724C43.1279 10.6316 44.0514 10.8864 44.975 11.0138L49.2423 11.7781C49.7199 11.8736 50.1976 11.9373 50.6753 12.001C51.2804 12.0965 51.5988 12.1284 52.0128 11.7781C52.7134 11.2367 52.9364 10.1221 52.5542 9.35781C52.1402 8.46613 51.1212 8.46613 50.2295 8.33875C49.7199 8.27506 49.306 8.14768 48.7964 8.08398L47.3952 7.82922C46.9175 7.76553 46.5035 7.66999 45.994 7.57445C45.0705 7.38338 44.0833 7.256 43.1598 7.06492L39.6567 6.42801C39.4975 6.39617 39.402 6.39617 39.2427 6.39617C39.1154 6.36432 39.0517 6.33247 38.8924 6.33247C38.5421 6.26878 37.7778 6.17325 37.4594 6.04586C37.5231 5.95033 37.6186 5.95033 37.746 5.91848C39.5294 5.56818 41.1535 5.28157 42.905 4.77204L45.4845 4.00774C46.3125 3.78482 47.2041 3.43452 48.064 3.24345C48.5098 3.14791 48.9557 2.89314 49.4015 3.11606C50.1339 3.53006 50.1976 3.5619 51.2804 3.14791C51.7899 2.95684 52.4268 2.4473 52.6497 1.96962C53.3185 0.536566 50.4842 -0.355112 49.1786 0.72764C49.0193 0.855023 48.9238 1.0461 48.7327 1.14163C48.3824 1.33271 47.7455 1.30086 47.2678 1.33271C45.7074 1.42824 44.1151 1.61932 42.5547 1.65116C41.9815 1.65116 41.5356 1.71486 40.9943 1.77855C40.5166 1.84224 40.007 1.90593 39.593 2.03331C39.402 2.097 39.0835 2.12885 38.8924 2.16069L33.9564 3.08422C33.0328 3.27529 32.0456 3.43452 31.1221 3.62559C30.6763 3.72113 30.1986 3.78482 29.7209 3.88036C29.5298 3.9122 29.1795 3.9759 28.9885 4.00774C28.1605 4.10328 27.7465 4.38989 26.823 4.13512C26.3453 4.00774 23.1926 3.49821 22.5556 3.37083L19.7214 2.8613C18.8297 2.67022 17.8425 2.54284 16.8871 2.35177C15.8999 2.16069 15.0082 1.96962 14.0529 1.84224C13.5752 1.77855 13.1293 1.65116 12.6198 1.58747C12.3969 1.55563 12.2058 1.52378 11.9192 1.49194C10.6454 1.33271 9.02125 1.36455 7.97035 1.23717C7.49266 1.17348 6.8876 1.17348 6.40991 1.14163C6.1233 1.14163 5.90038 1.07794 5.67746 1.0461C5.4227 1.01425 5.10424 1.01425 4.88132 1.01425C4.11703 0.982405 4.14887 0.823177 3.73488 0.50472C2.39736 -0.578032 0.486627 0.313647 0.200017 1.01425C-0.213976 2.097 1.98337 3.37083 2.93874 3.2116C3.44827 3.11606 3.48012 2.67022 4.14887 2.82945C5.0724 3.02053 5.86854 3.33898 6.76021 3.5619C7.2379 3.68929 7.5882 3.84851 8.03404 3.94405C8.89387 4.16697 9.78555 4.48543 10.6454 4.6765C11.0594 4.77204 11.5371 4.93127 11.9829 5.0268C12.9064 5.24972 13.8936 5.3771 14.849 5.53633L17.6833 6.07771V6.01402Z" fill="white"/>
<path fill-rule="evenodd" clip-rule="evenodd" d="M29.1484 42.4133C29.4669 42.2541 30.9318 42.4452 31.2502 42.3178C31.3139 42.2859 31.3139 42.1586 31.3139 42.0949L31.2502 37.9868C31.2502 37.2543 31.2502 36.5219 31.2184 35.7894C31.2184 35.3436 31.2502 33.9424 31.1865 33.5921C31.0592 33.4965 28.7663 33.6239 28.416 33.6239C27.4288 33.6239 26.4415 33.6239 25.4543 33.6239C25.4225 33.7195 25.3906 33.9105 25.2951 33.9424C24.9766 34.643 24.7537 35.4391 24.4671 36.1397L23.862 37.7639C23.7347 38.1142 23.7347 38.2097 23.6073 38.2734L22.843 35.8531C22.7474 35.5028 22.1742 33.5284 22.0468 33.401C21.6328 33.3373 21.0915 33.3373 20.6456 33.3373C19.6584 33.3055 17.2063 33.0825 16.5694 33.1144L16.6331 41.8719L19.0852 42.1904C19.2444 42.1904 19.4037 42.1904 19.5629 42.1904C19.754 42.1904 19.7858 42.2541 19.9769 42.2541C20.0724 41.3943 19.8813 36.9996 19.945 35.7576C20.0087 35.9168 20.0406 35.8213 20.1043 36.076L21.601 40.6618C21.6965 40.9803 21.7921 41.2032 21.8876 41.4898C21.9513 41.649 21.9832 41.7446 22.015 41.8719C22.0787 42.0312 22.0787 42.1586 22.1424 42.3178H25.1359C25.2314 42.0949 26.5052 38.3052 26.8874 37.3499L27.3014 36.1716C27.3969 36.299 27.3651 36.713 27.3651 36.904C27.3651 38.2097 27.3014 41.4898 27.3651 42.3496H29.0847L29.1484 42.4133Z" fill="white"/>
<path fill-rule="evenodd" clip-rule="evenodd" d="M15.8039 25.0897C16.2816 25.0578 16.7274 25.1852 17.2688 25.1852L19.084 25.2807C20.4533 25.5355 20.1667 26.4272 19.8164 26.7138C19.3069 27.1278 17.842 26.9049 17.0777 26.8412L15.9631 26.7775C15.8039 26.7456 15.8039 26.7456 15.8039 26.5546C15.8039 26.2361 15.7402 25.3126 15.8039 25.0578V25.0897ZM11.8232 23.8158C11.9506 24.1025 11.8869 30.1213 11.9187 31.3633C11.9187 31.5543 11.9187 31.5543 12.3964 31.618C12.6193 31.6499 12.8741 31.6499 13.1289 31.6817C13.9568 31.7773 15.0714 31.9365 15.9313 31.9365V29.0067C16.6956 28.9748 16.6 29.0704 17.0777 29.1022C17.3643 29.1341 18.1286 29.0704 18.2878 29.1978C18.9248 29.2933 19.498 29.5481 19.7846 30.0576C20.0075 30.4716 19.9438 31.0766 19.9438 31.6499C19.9438 31.9683 19.912 32.1912 19.9757 32.2549C20.1986 32.3505 24.1793 32.446 24.7207 32.4142C24.7207 31.7773 24.7843 29.9302 24.6888 29.4207C24.5296 28.6245 23.829 28.3061 23.0965 27.9876C23.1284 27.9239 23.1284 27.9239 23.1921 27.8921C23.2239 27.8602 24.1474 27.6055 24.5296 26.873C25.262 25.44 24.9754 24.2617 23.415 23.6248C21.9819 23.0515 20.4215 23.1789 18.9248 23.0515C18.5108 23.0197 18.0968 23.0515 17.6828 23.0197C17.3006 22.9879 16.8548 22.956 16.5045 22.9242L12.9696 22.6694C12.6193 22.6376 12.2053 22.542 11.8232 22.5739V23.784V23.8158Z" fill="white"/>
<path fill-rule="evenodd" clip-rule="evenodd" d="M34.7843 23.0196C34.6569 24.2616 34.9436 27.3188 34.6251 28.4971C34.4977 28.911 34.2111 29.3569 33.8927 29.548L33.2876 29.8027C32.8417 29.9301 32.6507 29.962 32.1093 29.9301C31.5042 29.9301 31.4724 29.8983 31.0265 29.7072C29.8801 29.1977 30.103 28.3697 30.103 27.064C30.103 26.2042 30.1349 23.8794 30.103 23.2107C29.689 23.1788 29.275 23.2425 28.8929 23.2425H25.8039C25.2943 23.2425 25.4217 23.147 25.4217 24.5482V28.1149C25.4217 30.4715 27.5554 31.8408 29.6572 32.2548C30.8992 32.4778 30.9947 32.5096 32.2685 32.5096C33.001 32.5096 34.3385 32.3822 35.0072 32.1593L35.8034 31.9045C37.2683 31.3632 38.4466 30.3441 38.8924 28.8155C39.0516 28.2741 38.988 27.5417 39.0198 26.9048C39.0198 25.9176 39.0835 23.5928 39.0198 22.7648C38.2873 22.7011 37.6823 22.8922 36.9817 22.8922L34.8162 22.9878L34.7843 23.0196Z" fill="white"/>
<path fill-rule="evenodd" clip-rule="evenodd" d="M46.2485 26.8094C46.2167 26.7457 45.2295 22.8287 44.9747 22.128C44.6244 22.128 42.9684 22.3828 42.3634 22.4465C41.9175 22.4784 41.5035 22.542 41.0577 22.6057C40.6756 22.6376 39.9431 22.6057 39.7202 22.765L39.6565 31.8091L41.4398 31.6181C41.5672 31.5862 41.6946 31.5544 41.822 31.5544C41.9812 31.5225 42.1405 31.5225 42.2997 31.5225C42.4271 31.5225 43.0321 31.3951 43.1277 31.3633C43.2232 31.2677 43.2232 25.6311 43.255 24.9623C43.5098 25.4082 43.5735 25.9814 43.7646 26.4272C43.9875 27.0004 44.1786 27.8603 44.2741 28.1469C44.4652 28.6564 44.7836 29.7073 44.911 30.2487C44.9747 30.5353 45.0066 30.8219 45.1658 31.013C45.3887 31.013 47.1084 30.6308 47.2039 30.5353C47.3313 30.4079 48.3185 25.7266 48.3822 25.4082C48.4777 24.9942 48.3822 25.1215 48.5414 24.5483C48.6051 24.2617 48.637 23.9114 48.7643 23.7203C48.7962 24.6757 48.7006 28.8475 48.6688 30.0895C48.828 30.0895 49.8152 29.7073 50.0063 29.6436C50.1019 29.6118 50.1337 29.5799 50.1974 29.5481C50.2929 29.4844 50.3248 29.5162 50.3566 29.3889C50.484 29.1341 50.4203 24.0069 50.5158 23.0516C50.5477 22.5102 50.5795 21.4911 50.5477 20.9498C50.3248 20.9498 49.8471 21.2045 49.6242 21.2682L47.5861 21.7777C47.5224 21.8414 47.395 22.6376 47.3313 22.8605L46.4396 26.4591C46.3759 26.7138 46.4078 26.7775 46.2804 26.9367L46.2485 26.8094Z" fill="white"/>
<path fill-rule="evenodd" clip-rule="evenodd" d="M4.62613 23.561C4.8809 23.5292 5.99549 23.7839 6.40949 24.0068C6.53687 24.0705 6.6324 24.0705 6.79163 24.2298C6.88717 24.3253 6.98271 24.3571 7.07824 24.4527C8.28838 25.5991 8.22469 28.4015 5.96365 27.9239C4.62613 27.6372 4.65798 27.7328 4.65798 27.2869C4.65798 26.9048 4.62613 26.6819 4.59429 26.3953V23.561H4.62613ZM11.4729 26.8411C11.4729 25.7265 11.1863 24.8985 10.5813 24.0387C10.008 23.2107 9.33928 22.8604 8.5113 22.4146C8.16099 22.2553 7.49224 22.0324 7.17378 21.9369C6.95086 21.8413 6.72794 21.8095 6.40949 21.7776C6.15472 21.7776 5.86811 21.6503 5.64519 21.6184L3.7663 21.1726C3.63892 21.1407 3.57523 21.077 3.44784 21.0452L2.6517 20.886C2.6517 21.4273 2.68355 23.147 2.71539 23.6247C2.81093 24.4845 2.71539 25.5354 2.77909 26.3953C2.84278 27.2869 2.81093 28.2423 2.84278 29.134C2.84278 29.4206 2.97016 29.3888 3.19308 29.4843C3.98922 29.8346 4.33952 29.8983 4.75351 30.0575L6.37764 30.5352C6.60056 30.5989 6.6961 30.6307 6.95086 30.6626C9.62589 31.0766 11.5048 29.548 11.5048 26.8093L11.4729 26.8411Z" fill="white"/>
<path fill-rule="evenodd" clip-rule="evenodd" d="M9.94537 38.0188C9.94537 37.8915 10.1683 37.2546 10.2638 36.9679L10.8689 35.3757C10.9963 35.503 11.3147 36.6495 11.3466 36.8087C11.4421 37.0953 11.5058 37.2546 11.5695 37.5412C11.6332 37.7641 11.7924 38.0188 11.7924 38.3055C11.5058 38.3055 10.1046 38.0825 9.94537 38.0188ZM6.56973 40.0888C6.8245 40.2162 8.76708 40.7257 9.11738 40.7257L9.37215 40.0251L10.3912 40.1844C10.7415 40.248 11.06 40.2799 11.4103 40.3436C11.5376 40.3754 12.3975 40.471 12.4293 40.5028C12.5567 40.5983 12.6522 41.1716 12.7796 41.3626C12.9707 41.49 16.0279 41.9359 16.41 41.904C16.3463 41.6811 16.2826 41.5219 16.219 41.3308C16.1234 41.1397 16.0916 41.0123 15.996 40.7894L15.0725 38.5602C14.8814 38.2099 14.7859 37.7959 14.6267 37.4138L12.9389 33.1783C12.907 33.0828 12.8433 32.9554 12.8115 32.8599C12.6204 32.8599 12.493 32.828 12.3656 32.7962L9.59507 32.3822C9.43584 32.3503 9.24476 32.3503 9.05369 32.3503L7.58879 36.6176C7.5251 36.7769 7.46141 36.9361 7.39772 37.0953C7.27034 37.4456 7.1748 37.7004 7.07926 38.0507L6.76081 39.0061C6.66527 39.3882 6.47419 39.8022 6.50604 40.0888H6.56973Z" fill="white"/>
<path fill-rule="evenodd" clip-rule="evenodd" d="M37.8426 35.1845L37.9062 41.7765C38.1292 41.8084 39.5622 41.5855 39.8488 41.5536L40.8042 41.4262C41.1545 41.3625 41.4411 41.2988 41.7277 41.2352C42.0462 41.1715 42.3646 41.1396 42.6831 41.0759C43.0334 41.0122 45.1352 40.5346 45.39 40.439L45.4537 37.9869C45.0715 37.9869 41.7277 38.7512 41.1863 38.6875L41.2819 32.5731L37.9699 33.0508C37.747 33.0827 37.8426 33.1782 37.8426 33.6559C37.8426 34.1654 37.8426 34.675 37.8426 35.1526V35.1845Z" fill="white"/>
<path fill-rule="evenodd" clip-rule="evenodd" d="M32.5226 42.1908C32.9684 42.2227 36.0893 41.9997 36.3122 41.9042C36.344 41.8405 36.4077 34.93 36.4077 33.911C36.4077 32.9874 36.7262 33.274 34.4015 33.3059C33.9556 33.3059 33.5098 33.3059 33.0321 33.3059C32.8092 33.3059 32.5544 33.2422 32.5226 33.4333C32.5226 33.4333 32.4589 41.9042 32.4907 42.1908H32.5226Z" fill="white"/>
<path fill-rule="evenodd" clip-rule="evenodd" d="M47.5864 34.4523C47.4909 34.2931 47.045 32.7008 46.9177 32.3823C46.8221 32.1913 46.7584 31.8728 46.6629 31.7136C46.5037 31.7136 46.1215 31.8091 45.9623 31.841L44.5292 32.1276C44.4019 32.1594 43.8605 32.2231 43.7968 32.2868C43.7968 32.2868 43.6694 32.2868 43.7968 32.4779C43.7968 32.4779 43.7968 32.5097 43.8286 32.5097L43.956 32.7008C44.4019 33.4969 45.0388 34.7071 45.4209 35.5032C45.4846 35.5987 45.4846 35.6624 45.5483 35.7261L46.2171 36.9999C46.7584 37.7961 46.3126 38.8788 46.4081 40.0571C46.7903 40.0571 47.6183 39.675 48.0323 39.5476C48.7329 39.3565 48.5418 39.261 48.5418 38.019C48.5418 37.7961 48.5418 37.5732 48.5418 37.3502C48.5418 36.9363 48.5736 36.8407 48.6692 36.4904L49.2424 34.6434C49.3698 34.2931 49.4335 33.9746 49.529 33.5925L49.8156 32.5416C49.9111 32.1276 50.2933 30.5353 50.2933 30.3124C50.1978 30.3124 49.7838 30.5034 49.6882 30.5671C49.1787 30.79 48.7329 30.7582 48.6055 31.1722L48.3507 31.9683C48.287 32.2549 47.6501 34.2931 47.5864 34.3886V34.4523Z" fill="white"/>
<path fill-rule="evenodd" clip-rule="evenodd" d="M4.50003 39.3883L4.43634 36.4266C4.72295 36.4266 4.88217 36.5222 5.07325 36.6177C5.29617 36.7132 5.4554 36.7451 5.67832 36.8406C5.83754 36.9043 6.69738 37.2228 6.8566 37.2228C6.92029 36.9043 6.88845 35.3439 6.82476 35.0254C6.56999 34.898 4.46818 34.3248 4.37265 34.1974C4.3408 34.1656 4.37265 34.2293 4.3408 34.1019V33.1465C4.65926 33.1465 4.88217 33.2739 5.10509 33.3695C5.16879 33.4013 5.23248 33.4331 5.26432 33.4331C5.32801 33.465 5.3917 33.465 5.48724 33.4968L6.31523 33.7198C6.5063 33.7516 7.23875 34.0382 7.49352 34.0382V32.0001C7.33429 31.8727 5.71016 31.5543 5.10509 31.3313L3.92681 30.9492C3.67204 30.8536 3.03513 30.5352 2.78036 30.5033C2.74852 32.2867 2.84406 34.0064 2.84406 35.7579C2.84406 36.0126 2.8759 36.14 2.90775 36.3311L2.93959 38.3055C2.93959 38.7514 3.16251 38.624 3.51281 38.9106L3.5765 38.9743C3.6402 39.0061 4.3408 39.3564 4.50003 39.3883Z" fill="white"/>
</svg>
